<?xml version="1.0" encoding="utf-8" ?>
<svg baseProfile="full" height="100%" preserveAspectRatio="none" version="1.1" viewBox="0 0 650.0 480" width="100%" xmlns="http://www.w3.org/2000/svg" xmlns:ev="http://www.w3.org/2001/xml-events" xmlns:xlink="http://www.w3.org/1999/xlink"><defs /><g id="disks-group" transform="translate(30, 30)"><g id="sda" transform="translate(0, 0)"><text fill="black">sda size=10000</text><g id="in-sda" transform="translate(0, 10)"><rect height="2cm" rx="5" ry="5" style="fill:#f5f5f5;stroke:black;stroke-width:5;" width="450.0" x="0" y="0" /><rect height="2cm" id="ceph" rx="5" ry="5" style="fill:#666547;stroke:black;stroke-width:5;" width="0.0" x="0" y="0" /><rect height="2cm" id="ceph-journal" rx="5" ry="5" style="fill:#fb2e01;stroke:black;stroke-width:5;" width="0.0" x="0.0" y="0" /><rect height="2cm" id="swap" rx="5" ry="5" style="fill:#6fcb9f;stroke:black;stroke-width:5;" width="92.16" x="0.0" y="0" /><rect height="2cm" id="root" rx="5" ry="5" style="fill:#ffe28a;stroke:black;stroke-width:5;" width="357.84" x="92.16" y="0" /><rect height="2cm" id="unallocated" rx="5" ry="5" style="fill:#b9feb3;stroke:black;stroke-width:5;" width="0.0" x="450.0" y="0" /><text fill="#666547" x="460.0" y="20">ceph size=0</text><text fill="#fb2e01" x="460.0" y="40">ceph-journal size=0</text><text fill="#6fcb9f" x="460.0" y="60">swap size=2048</text><text fill="#ffe28a" x="460.0" y="80">root size=7952</text><text fill="#b9feb3" x="460.0" y="100">unallocated size=0</text></g></g><g id="sdb" transform="translate(0, 110)"><text fill="black">sdb size=10000</text><g id="in-sdb" transform="translate(0, 10)"><rect height="2cm" rx="5" ry="5" style="fill:#f5f5f5;stroke:black;stroke-width:5;" width="450.0" x="0" y="0" /><rect height="2cm" id="ceph" rx="5" ry="5" style="fill:#666547;stroke:black;stroke-width:5;" width="450.0" x="0" y="0" /><rect height="2cm" id="ceph-journal" rx="5" ry="5" style="fill:#fb2e01;stroke:black;stroke-width:5;" width="0.0" x="450.0" y="0" /><rect height="2cm" id="swap" rx="5" ry="5" style="fill:#6fcb9f;stroke:black;stroke-width:5;" width="0.0" x="450.0" y="0" /><rect height="2cm" id="root" rx="5" ry="5" style="fill:#ffe28a;stroke:black;stroke-width:5;" width="0.0" x="450.0" y="0" /><rect height="2cm" id="unallocated" rx="5" ry="5" style="fill:#b9feb3;stroke:black;stroke-width:5;" width="0.0" x="450.0" y="0" /><text fill="#666547" x="460.0" y="20">ceph size=10000</text><text fill="#fb2e01" x="460.0" y="40">ceph-journal size=0</text><text fill="#6fcb9f" x="460.0" y="60">swap size=0</text><text fill="#ffe28a" x="460.0" y="80">root size=0</text><text fill="#b9feb3" x="460.0" y="100">unallocated size=0</text></g></g><g id="sdc" transform="translate(0, 220)"><text fill="black">sdc size=10000</text><g id="in-sdc" transform="translate(0, 10)"><rect height="2cm" rx="5" ry="5" style="fill:#f5f5f5;stroke:black;stroke-width:5;" width="450.0" x="0" y="0" /><rect height="2cm" id="ceph" rx="5" ry="5" style="fill:#666547;stroke:black;stroke-width:5;" width="450.0" x="0" y="0" /><rect height="2cm" id="ceph-journal" rx="5" ry="5" style="fill:#fb2e01;stroke:black;stroke-width:5;" width="0.0" x="450.0" y="0" /><rect height="2cm" id="swap" rx="5" ry="5" style="fill:#6fcb9f;stroke:black;stroke-width:5;" width="0.0" x="450.0" y="0" /><rect height="2cm" id="root" rx="5" ry="5" style="fill:#ffe28a;stroke:black;stroke-width:5;" width="0.0" x="450.0" y="0" /><rect height="2cm" id="unallocated" rx="5" ry="5" style="fill:#b9feb3;stroke:black;stroke-width:5;" width="0.0" x="450.0" y="0" /><text fill="#666547" x="460.0" y="20">ceph size=10000</text><text fill="#fb2e01" x="460.0" y="40">ceph-journal size=0</text><text fill="#6fcb9f" x="460.0" y="60">swap size=0</text><text fill="#ffe28a" x="460.0" y="80">root size=0</text><text fill="#b9feb3" x="460.0" y="100">unallocated size=0</text></g></g><g id="sde" transform="translate(0, 330)"><text fill="black">sde size=2048</text><g id="in-sde" transform="translate(0, 10)"><rect height="2cm" rx="5" ry="5" style="fill:#f5f5f5;stroke:black;stroke-width:5;" width="92.16" x="0" y="0" /><rect height="2cm" id="ceph" rx="5" ry="5" style="fill:#666547;stroke:black;stroke-width:5;" width="0.0" x="0" y="0" /><rect height="2cm" id="ceph-journal" rx="5" ry="5" style="fill:#fb2e01;stroke:black;stroke-width:5;" width="92.16" x="0.0" y="0" /><rect height="2cm" id="swap" rx="5" ry="5" style="fill:#6fcb9f;stroke:black;stroke-width:5;" width="0.0" x="92.16" y="0" /><rect height="2cm" id="root" rx="5" ry="5" style="fill:#ffe28a;stroke:black;stroke-width:5;" width="0.0" x="92.16" y="0" /><rect height="2cm" id="unallocated" rx="5" ry="5" style="fill:#b9feb3;stroke:black;stroke-width:5;" width="0.0" x="92.16" y="0" /><text fill="#666547" x="102.16" y="20">ceph size=0</text><text fill="#fb2e01" x="102.16" y="40">ceph-journal size=2048</text><text fill="#6fcb9f" x="102.16" y="60">swap size=0</text><text fill="#ffe28a" x="102.16" y="80">root size=0</text><text fill="#b9feb3" x="102.16" y="100">unallocated size=0</text></g></g></g></svg>